<svg width="438" height="90" viewBox="0 0 438 90" fill="none" xmlns="http://www.w3.org/2000/svg">
<path d="M92.6849 18.3173L71.5717 42.9098L95.254 70.4962H137.494L92.6849 18.3173Z" fill="#11163D"/>
<path d="M89.8688 15.0295H47.5145L47.5785 15.1024L0 70.4962H42.2396L89.8181 15.0913L89.8688 15.0295Z" fill="#11163D"/>
<path d="M302.553 46.8715H302.416L302.478 46.7986L302.553 46.8715Z" fill="#11163D"/>
<path d="M302.478 46.7986L302.553 46.8715H302.416L302.478 46.7986Z" fill="#11163D"/>
<path d="M248.645 65.5887V89.989H234.212V22.7254H248.623V27.6306C248.872 27.677 248.932 27.4804 249.029 27.3699C251.042 25.0697 253.596 23.5915 256.452 22.6525C261.308 21.0549 266.162 21.2759 270.941 22.9861C273.569 23.9274 275.883 25.4476 277.909 27.3655C280.361 29.6855 282.339 32.3547 283.7 35.4657C284.765 37.8985 285.376 40.4439 285.685 43.0755C286.077 46.4274 285.919 49.7528 285.226 53.0517C284.607 56.0058 283.462 58.7523 281.79 61.269C279.971 64.0089 277.708 66.3112 274.992 68.1629C272.738 69.6985 270.244 70.6729 267.58 71.1789C262.051 72.2263 256.811 71.5258 251.997 68.4523C250.765 67.6657 249.684 66.6935 248.645 65.5909V65.5887ZM259.967 34.0295C259.654 34.045 259.374 34.056 259.094 34.0759C254.772 34.3919 251.592 36.5749 249.702 40.371C247.679 44.4343 247.721 48.6833 249.655 52.8064C250.69 55.0115 252.335 56.7416 254.5 57.9304C256.527 59.0418 258.699 59.3887 260.984 59.2163C263.416 59.0329 265.533 58.1226 267.335 56.4964C269.516 54.5276 270.863 52.0883 271.307 49.1694C271.834 45.7004 271.448 42.3795 269.507 39.3811C267.269 35.9253 264.084 34.0892 259.967 34.0295Z" fill="#11163D"/>
<path d="M341.366 70.4984L322.707 48.7651H304.366L304.361 44.4697H322.709L341.361 22.7364H322.974L304.361 44.41V43.1307C304.361 28.7575 304.361 14.3843 304.361 0H290.034V70.4962H304.394L304.368 48.827L322.982 70.4962H341.37L341.366 70.4984Z" fill="#11163D"/>
<path d="M204.24 71.6319C199.746 71.612 195.45 70.7127 191.505 68.5053C188.058 66.5764 185.143 64.0177 182.854 60.7697C180.831 57.8994 179.517 54.7375 178.939 51.2752C178.485 48.5508 178.436 45.8131 178.789 43.071C179.195 39.9202 180.183 36.9572 181.784 34.2195C183.171 31.8509 184.953 29.8004 187.008 27.9753C190.01 25.3106 193.437 23.4479 197.307 22.4381C200.646 21.5654 204.046 21.4306 207.471 21.7775C210.719 22.1067 213.785 23.0502 216.671 24.5704C218.817 25.6994 220.749 27.1379 222.476 28.826C224.447 30.7527 226.152 32.8916 227.395 35.3796C228.661 37.9095 229.479 40.5698 229.797 43.3804C230.24 47.2913 229.956 51.136 228.679 54.879C227.777 57.5194 226.445 59.9234 224.661 62.0733C221.565 65.803 217.794 68.5871 213.198 70.1758C210.305 71.1745 207.306 71.6385 204.24 71.6319ZM192.837 46.6417C192.824 48.8027 193.194 50.8885 194.156 52.8307C195.225 54.9894 196.767 56.7195 198.917 57.8729C200.954 58.9667 203.122 59.318 205.409 59.1014C209.621 58.7037 212.6 56.4765 214.329 52.7202C216.199 48.659 216.091 44.4741 214.301 40.3931C213.324 38.1658 211.679 36.4644 209.524 35.2956C207.632 34.2681 205.592 33.9411 203.466 34.0693C199.724 34.2947 196.903 36.1065 194.863 39.1822C193.37 41.4316 192.852 43.9726 192.837 46.6395V46.6417Z" fill="#11163D"/>
<path d="M383.201 40.9013C382.456 36.2987 380.727 32.158 377.695 28.594C375.263 25.7149 372.208 23.8014 368.634 22.6878C365.456 21.7001 362.194 21.4482 358.9 21.6692C355.607 21.8902 352.48 22.7718 349.576 24.3693C347.456 25.5249 345.569 26.9655 343.86 28.647C341.123 31.3582 339.023 34.4913 337.767 38.1371C336.278 42.4568 335.963 46.9113 336.75 51.3989C337.808 57.484 340.662 62.7605 345.54 66.5123C349.726 69.7493 354.414 71.4838 359.993 71.4838C363.894 71.4838 366.276 71.0331 368.94 70.0432C373.157 68.4678 376.619 65.7036 379.461 61.9938C381.067 59.9124 382.419 57.3382 383.248 54.7641H368.878C367.253 57.2432 365.123 58.5778 362.029 58.9357C360.602 59.1037 358.893 59.0727 357.55 58.7258C355.274 58.158 353.082 56.9073 351.761 55.164C350.628 53.6615 350.147 52.2319 349.904 50.4665H383.541C383.561 50.0577 383.605 49.7196 383.614 49.3948C383.729 46.5467 383.667 43.7207 383.204 40.9035L383.201 40.9013ZM350.341 41.2371C350.405 40.7643 350.581 40.3444 350.76 39.9335C351.871 37.3792 353.55 35.342 356.077 34.1113C358.216 33.0706 360.472 32.9026 362.79 33.3136C366.565 33.9853 369.449 37.0655 370.08 40.7444C370.111 40.8814 370.144 41.0272 370.186 41.2393H350.341V41.2371Z" fill="#11163D"/>
<path d="M158.318 14.9897H137.381V2.773H194.032V14.972H173.12V70.4763H158.318V14.9875V14.9897Z" fill="#11163D"/>
<path d="M438 22.7165C426.244 45.1944 413.392 67.5862 401.671 90H386.64C391.683 80.7021 401.15 63.2466 401.15 63.2466L381.464 22.732H397.106L409.325 47.5056L422.479 22.7165H438Z" fill="#11163D"/>
</svg>
